<svg width="360" height="406" viewBox="0 0 360 406" fill="none" xmlns="http://www.w3.org/2000/svg">
<g clip-path="url(#clip0_256_5194)">
<path d="M0 214.043C0 214.043 57.056 90.4374 117.152 90.4374C177.248 90.4374 219.328 218.742 279.424 218.742C339.52 218.742 332.864 151.957 360 151.957V-40H0V214.043Z" fill="url(#paint0_linear_256_5194)"/>
<path d="M157.984 172.119L141.472 177.617C141.472 177.617 136.448 197.813 138.016 201.412C139.584 205.011 148.416 207.744 152.608 205.578C156.8 203.412 171.008 189.248 171.008 189.248L157.984 172.119Z" fill="#FFEDE5"/>
<path d="M173.12 152.623C173.12 152.623 162.56 165.087 157.984 172.119L169.76 191.281L182.08 179.75C182.08 179.75 180.032 147.858 173.12 152.623Z" fill="#543753"/>
<path d="M156.096 172.752V191.948L161.408 177.684L157.984 172.119L156.096 172.752Z" fill="#E0855C"/>
<path d="M155.296 161.621C156.736 161.988 157.184 160.955 158.368 162.921C159.552 164.887 162.048 172.585 161.376 173.752C160.704 174.918 153.248 182.416 152.704 182.416C152.16 182.416 150.784 180.317 151.072 179.584C151.072 179.584 149.312 180.683 148.16 180.483C148.16 180.483 145.6 181.883 144.576 181.617C143.552 181.35 137.568 172.152 138.976 169.719C140.384 167.286 141.28 168.553 142.112 167.586C142.944 166.62 144.352 165.02 146.048 165.187C147.744 165.354 148.512 162.621 150.976 163.021C153.44 163.421 152.096 160.788 155.296 161.621Z" fill="#FFEDE5"/>
<path d="M151.04 179.917C150.912 179.917 150.816 179.851 150.752 179.751C150.656 179.584 150.72 179.384 150.88 179.317C150.912 179.317 153.792 177.718 154.56 176.551L154.624 176.485C154.656 176.485 156.288 174.952 156.832 173.785L154.048 167.22C153.984 167.053 154.048 166.853 154.208 166.787C154.368 166.72 154.56 166.787 154.624 166.953L157.504 173.785L157.44 173.919C156.96 175.185 155.296 176.751 155.04 176.984C154.144 178.284 151.264 179.851 151.136 179.917C151.136 179.884 151.104 179.917 151.04 179.917Z" fill="#472938"/>
<path d="M148.128 180.817C148 180.817 147.904 180.75 147.84 180.617L144.288 173.085C144.224 172.919 144.288 172.719 144.448 172.652C144.608 172.585 144.8 172.652 144.864 172.819L148.416 180.35C148.48 180.517 148.416 180.717 148.256 180.784C148.224 180.817 148.192 180.817 148.128 180.817Z" fill="#472938"/>
<path d="M152.928 178.751C152.8 178.751 152.704 178.684 152.64 178.551L149.312 171.086C149.248 170.919 149.312 170.719 149.472 170.652C149.632 170.586 149.824 170.652 149.888 170.819L153.216 178.284C153.28 178.451 153.216 178.651 153.056 178.717C153.024 178.751 152.96 178.751 152.928 178.751Z" fill="#472938"/>
<path d="M152.673 182.75C152.161 182.75 151.585 181.916 151.361 181.583C151.201 181.35 150.849 180.75 150.721 180.15C150.113 180.45 149.057 180.917 148.193 180.85C147.681 181.117 145.505 182.216 144.481 181.95C143.905 181.816 142.849 180.35 142.273 179.484C142.177 179.317 142.209 179.117 142.337 179.017C142.465 178.917 142.689 178.95 142.785 179.084C143.777 180.583 144.449 181.217 144.609 181.283C145.281 181.45 147.009 180.683 147.969 180.183L148.065 180.15H148.161C149.217 180.317 150.849 179.284 150.881 179.284L151.713 178.784L151.361 179.717C151.329 179.817 151.329 180.15 151.649 180.783C152.033 181.516 152.481 181.983 152.673 182.083C153.473 181.616 158.689 176.484 160.545 174.418C158.817 174.851 157.153 174.085 157.089 174.051C156.929 173.985 156.865 173.785 156.929 173.618C156.993 173.452 157.185 173.385 157.345 173.452C157.377 173.452 159.457 174.418 161.217 173.452C161.441 173.318 161.601 173.385 161.665 173.485C161.761 173.552 161.825 173.718 161.761 173.885C161.537 174.485 153.441 182.75 152.673 182.75Z" fill="#472938"/>
<path d="M209.312 132.595L225.344 143.092V164.854C225.344 164.854 208.672 200.979 209.312 214.01L171.136 221.441C171.136 221.441 161.984 183.183 173.12 152.59L190.144 140.126L209.312 132.595Z" fill="#AB8DA8"/>
<path d="M167.616 190.715C167.456 190.715 167.296 190.582 167.296 190.382C167.168 181.15 167.872 172.552 169.44 164.754C169.472 164.588 169.632 164.454 169.824 164.488C169.984 164.521 170.112 164.688 170.08 164.887C168.544 172.619 167.808 181.184 167.968 190.348C167.936 190.548 167.808 190.715 167.616 190.715Z" fill="#472938"/>
<path d="M225.344 164.888L212.832 162.921L219.84 177.685L225.344 164.888Z" fill="#543753"/>
<path d="M205.152 119.231L209.312 132.595C204.864 134.394 200.864 137.194 197.6 140.826C192.128 146.891 190.016 152.623 186.72 152.623C183.424 152.623 190.176 140.16 190.176 140.16L189.312 128.496L205.152 119.231Z" fill="#FFEDE5"/>
<path d="M189.728 134.427C189.728 134.427 197.056 133.294 200.8 122.33L189.28 128.495L189.728 134.427Z" fill="#E0855C"/>
<path d="M184.288 91.937C184.288 91.937 177.216 127.862 180.896 130.328C184.576 132.795 199.104 130.662 204.512 120.664C209.92 110.666 203.136 91.937 184.288 91.937Z" fill="#FFEDE5"/>
<path d="M182.016 104.701C182.016 104.701 175.36 113.665 176.032 114.532C176.704 115.398 180.352 116.631 180.352 116.631L182.016 104.701Z" fill="#FFEDE5"/>
<path d="M201.984 115.232C201.984 115.232 198.656 113.499 200.8 105.934C200.8 105.934 196.48 97.969 193.664 96.6693C190.848 95.3696 183.68 94.9696 183.68 94.9696C183.68 94.9696 182.24 84.472 184.64 83.3722C187.04 82.2725 209.248 82.9057 213.44 91.0705C214.848 93.8366 213.952 95.5029 213.952 95.5029C213.952 95.5029 216.32 98.7688 215.904 101.568C215.488 104.368 208.96 114.732 208.96 114.732L201.984 115.232Z" fill="#3B2645"/>
<path d="M208.626 117.964C210.85 115.647 211.478 112.546 210.029 111.036C208.579 109.526 205.601 110.18 203.376 112.497C201.152 114.813 200.524 117.915 201.973 119.425C203.423 120.935 206.401 120.28 208.626 117.964Z" fill="#FFEDE5"/>
<path d="M183.712 122.397C182.208 122.397 180.864 121.963 180.768 121.93C180.608 121.863 180.512 121.697 180.576 121.497C180.64 121.33 180.8 121.23 180.992 121.297C181.024 121.297 185.376 122.763 186.88 120.364C186.976 120.197 187.168 120.164 187.328 120.264C187.488 120.364 187.52 120.564 187.424 120.73C186.56 122.03 185.088 122.397 183.712 122.397Z" fill="#472938"/>
<path d="M203.68 116.765C203.584 116.765 203.456 116.698 203.424 116.598C203.328 116.431 203.36 116.231 203.52 116.131L206.112 114.432C206.272 114.332 206.464 114.365 206.56 114.532C206.656 114.698 206.624 114.898 206.464 114.998L203.872 116.698C203.808 116.731 203.744 116.765 203.68 116.765Z" fill="#472938"/>
<path d="M186.432 104.734C187.104 104.901 187.52 105.6 187.36 106.267L187.168 107.167C187.008 107.867 186.336 108.3 185.696 108.133C185.024 107.967 184.608 107.267 184.768 106.6L184.96 105.7C185.12 105.001 185.76 104.567 186.432 104.734Z" fill="#3B2645"/>
<path d="M185.088 101.235C185.088 101.235 189.312 100.935 190.4 104.534C190.4 104.534 190.272 100.768 187.616 100.202C184.96 99.6351 184.096 101.068 185.088 101.235Z" fill="#3B2645"/>
<path d="M215.008 136.327C200.64 133.794 210.176 165.354 210.176 165.354L231.68 172.119L239.648 146.625C227.136 140.892 215.008 136.327 215.008 136.327Z" fill="#AB8DA8"/>
<path d="M235.04 210.91C235.04 210.91 227.456 213.676 226.72 214.909C225.984 216.142 226.688 220.508 226.688 220.508C225.888 221.841 225.248 223.241 224.8 224.74C224.16 226.973 225.76 226.307 227.648 228.573C229.536 230.839 231.072 230.272 232.16 231.306C233.248 232.339 235.456 232.005 236.32 232.439C237.184 232.872 238.816 234.338 239.808 234.272C240.8 234.205 243.136 230.672 245.056 226.24C246.976 221.808 246.624 218.208 247.488 212.876C248.352 207.544 268.544 173.252 266.176 163.954C264.992 159.322 252.128 152.39 239.616 146.625L231.648 172.119L243.04 175.718L235.04 210.91Z" fill="#FFEDE5"/>
<path d="M246.464 176.984C246.432 176.984 246.4 176.984 246.368 176.984L242.944 176.018C242.784 175.985 242.656 175.785 242.72 175.618C242.752 175.451 242.944 175.351 243.104 175.385L246.528 176.351C246.688 176.385 246.816 176.585 246.752 176.751C246.752 176.884 246.624 176.984 246.464 176.984Z" fill="#472938"/>
<path d="M272.48 296.391L284.928 289.892C284.928 289.892 284.64 287.36 287.136 284.494C289.632 281.628 287.776 274.996 285.44 273.929C283.104 272.863 281.952 273.596 279.936 270.164L261.92 278.295L272.48 296.391Z" fill="#FFEDE5"/>
<path d="M285.407 273.929C287.743 274.996 289.567 281.628 287.103 284.494C284.639 287.36 284.895 289.893 284.895 289.893C295.551 291.392 305.567 307.655 307.455 309.488C309.343 311.321 316.991 310.021 317.215 308.655C317.439 307.289 300.831 261.666 299.295 260.666C297.759 259.666 279.903 270.164 279.903 270.164C281.919 273.596 283.071 272.863 285.407 273.929Z" fill="#AB8DA8"/>
<path d="M317.215 308.655C317.407 307.289 300.831 261.666 299.295 260.666C298.911 260.399 297.503 260.866 295.647 261.699C300.063 270.83 311.327 302.29 314.111 310.088C315.775 309.755 317.119 309.222 317.215 308.655Z" fill="#E5E5E5"/>
<path d="M176.512 248.202C176.512 248.202 205.056 326.184 217.088 327.217C229.12 328.25 277.952 294.091 277.952 294.091L268.864 275.129L227.616 289.293L217.344 240.337L176.512 248.202Z" fill="#3B2645"/>
<g opacity="0.5">
<path opacity="0.5" d="M217.344 240.37L176.512 248.202C176.512 248.202 183.84 268.197 192.608 288.059L220.736 256.7L217.344 240.37Z" fill="#3B2645"/>
</g>
<path d="M101.504 360.677L96 373.974C96 373.974 97.792 375.74 97.664 379.572C97.536 383.405 103.04 387.271 105.504 386.504C107.968 385.738 108.384 384.405 112.064 385.704L120.832 367.375L101.504 360.677Z" fill="#FFEDE5"/>
<path d="M99.584 365.309C99.584 365.309 107.136 373.541 117.024 375.274L120.8 367.375L101.504 360.644L99.584 365.309Z" fill="#E0855C"/>
<path d="M209.311 214.043C209.311 214.043 226.015 234.205 217.311 250.202C208.607 266.198 156.735 295.591 153.215 304.623C149.695 313.654 147.711 324.085 140.511 336.615C133.311 349.146 121.823 371.241 121.823 371.241C121.823 371.241 104.447 370.541 98.7832 362.71C98.7832 362.71 126.815 288.826 133.503 279.262C140.191 269.697 171.743 229.173 171.743 229.173L171.103 221.475L209.311 214.043Z" fill="#3B2645"/>
<path d="M113.919 368.608C113.887 368.608 113.887 368.608 113.855 368.608C113.791 368.575 113.727 368.475 113.791 368.375C114.111 367.675 144.991 299.157 151.167 291.159C153.439 288.193 160.127 281.228 167.839 273.163C181.055 259.366 197.471 242.204 199.679 236.938C203.135 228.74 200.831 217.209 200.799 217.076C200.767 216.976 200.831 216.909 200.927 216.876C201.023 216.843 201.087 216.909 201.119 217.009C201.151 217.109 203.455 228.773 199.967 237.071C197.727 242.37 181.279 259.566 168.063 273.397C160.351 281.461 153.695 288.393 151.423 291.359C145.279 299.324 114.399 367.809 114.111 368.509C114.047 368.575 113.983 368.608 113.919 368.608Z" fill="white"/>
<path d="M109.535 367.575C109.503 367.575 109.503 367.575 109.471 367.575C109.407 367.542 109.343 367.442 109.407 367.342C109.727 366.642 141.759 296.058 145.471 290.126C147.359 287.093 158.623 274.696 169.503 262.732C180.255 250.902 191.391 238.638 193.535 235.372C197.823 228.84 196.927 218.242 196.927 218.142C196.927 218.042 196.991 217.976 197.087 217.976C197.183 217.976 197.247 218.042 197.247 218.142C197.247 218.242 198.175 228.973 193.791 235.605C191.615 238.904 180.479 251.168 169.727 263.032C158.847 274.996 147.615 287.393 145.727 290.393C142.047 296.325 109.983 366.876 109.663 367.575C109.663 367.542 109.599 367.575 109.535 367.575Z" fill="white"/>
<path d="M105.472 386.538C103.04 387.271 97.5036 383.439 97.6316 379.606C97.7596 375.774 95.9676 374.007 95.9676 374.007C86.8796 380.006 69.1836 374.274 66.5916 374.141C63.9996 374.007 58.9436 380.139 59.6476 381.306C60.3516 382.472 101.216 406.267 103.04 406.033C104.864 405.8 112 385.771 112 385.771C108.352 384.438 107.936 385.805 105.472 386.538Z" fill="#AB8DA8"/>
<path d="M59.6799 381.306C60.3519 382.472 101.248 406.267 103.072 406.033C103.52 405.967 104.32 404.7 105.216 402.801C96.1919 398.768 68.0959 382.239 61.1839 378.14C60.0959 379.473 59.3919 380.806 59.6799 381.306Z" fill="#E5E5E5"/>
<g opacity="0.5">
<path opacity="0.5" d="M171.743 229.173C171.743 229.173 190.719 226.707 190.527 226.773C190.335 226.84 171.487 225.907 171.487 225.907L171.743 229.173Z" fill="#3B2645"/>
</g>
</g>
<defs>
<linearGradient id="paint0_linear_256_5194" x1="360" y1="218.742" x2="-117.148" y2="167.37" gradientUnits="userSpaceOnUse">
<stop stop-color="#92A3FD"/>
<stop offset="1" stop-color="#9DCEFF"/>
</linearGradient>
<clipPath id="clip0_256_5194">
<rect width="360" height="406" fill="white"/>
</clipPath>
</defs>
</svg>
