<svg width="360" height="406" viewBox="0 0 360 406" fill="none" xmlns="http://www.w3.org/2000/svg">
<path d="M360 236.901C360 236.901 290.816 399.894 183.456 405.5C76.096 411.105 0 350.512 0 350.512V-37H360V236.901Z" fill="url(#paint0_linear_256_4898)"/>
<path d="M135.648 316.413C116.256 367.229 121.792 401.563 121.792 401.563C140.192 405.066 158.88 406.501 177.568 405.867C201.248 405.066 223.136 397.392 242.976 385.747C243.648 357.519 234.4 332.328 227.808 318.014C185.408 339.402 148.416 323.419 135.648 316.413Z" fill="#AB8DA8"/>
<path d="M141.344 302.732C139.264 307.404 137.344 311.975 135.68 316.412C148.416 323.419 185.44 339.435 227.808 318.014C224.192 310.173 221.344 305.602 221.344 305.602C221.344 305.602 167.424 244.475 141.344 302.732Z" fill="#FEF9EF"/>
<path d="M183.456 405.499V387.916L198.112 377.305L188.416 391.419L189.408 404.999L183.456 405.499Z" fill="#543753"/>
<path d="M113.792 192.625C113.792 192.625 112.32 193.192 112.064 208.74C111.808 224.289 110.688 255.219 110.688 255.219C110.688 255.219 97.152 242.106 96.16 235.5C95.168 228.893 95.584 222.954 94.912 219.317C94.24 215.68 94.112 205.737 94.4 203.869C94.688 202 90.144 201.7 88.896 204.469C87.648 207.239 87.232 216.448 86.592 216.781C85.952 217.115 78.624 217.816 77.92 219.484C77.216 221.152 78.464 224.189 77.376 226.725C76.288 229.26 77.472 231.062 77.376 232.997C77.28 234.933 76.832 235.667 77.664 238.603C78.496 241.539 78.656 244.008 80 244.475L81.344 244.942L86.048 246.611C86.048 246.611 106.208 293.957 116.192 294.991C126.176 296.026 131.392 287.751 132.64 281.078C133.888 274.404 140.576 234.432 140.576 234.432L113.792 192.625Z" fill="#FFEDE5"/>
<path d="M125.12 225.523L136.192 260.591L140.576 234.399L125.12 225.523Z" fill="#E0855C"/>
<path d="M110.688 255.186C110.688 255.186 120.096 263.427 123.2 270.2C123.2 270.2 118.176 256.32 110.88 249.88L110.688 255.186Z" fill="#E0855C"/>
<path d="M82.9121 244.275C82.9121 244.275 92.7361 244.008 93.5361 243.374C94.3361 242.74 94.3681 239.737 93.9521 239.37C93.9521 239.37 94.7521 234.999 94.0161 233.865C94.0161 233.865 94.3041 230.628 93.9841 228.727C93.9841 228.727 95.6161 238.469 95.4241 240.004C95.2321 241.539 96.0001 244.142 91.5841 244.909C87.1681 245.676 82.9121 244.275 82.9121 244.275Z" fill="#E0855C"/>
<path d="M94.0164 233.931C93.9844 233.931 93.9844 233.931 93.9524 233.931C93.7924 233.898 93.6644 233.731 93.6964 233.564C94.1124 230.862 93.4404 225.623 93.4404 225.59V225.523V225.456C93.7284 224.289 94.3364 220.985 93.5044 219.984C92.7684 219.084 85.6644 218.85 81.3444 218.917C81.1844 218.917 81.0244 218.783 81.0244 218.583C81.0244 218.383 81.1524 218.249 81.3444 218.249C83.2644 218.216 92.8324 218.149 93.9844 219.551C95.1364 220.952 94.2404 224.856 94.0804 225.557C94.1444 226.19 94.7204 230.995 94.3044 233.664C94.3044 233.831 94.1444 233.931 94.0164 233.931Z" fill="#472938"/>
<path d="M93.7597 225.857C93.7277 225.857 93.7597 225.857 93.7597 225.857L83.4557 225.356C83.2637 225.356 83.1357 225.189 83.1357 225.023C83.1357 224.822 83.2637 224.689 83.4557 224.689L93.7597 225.189C93.9517 225.189 94.0797 225.356 94.0797 225.523C94.0797 225.723 93.9197 225.857 93.7597 225.857Z" fill="#472938"/>
<path d="M93.9201 239.704H83.7761C83.5841 239.704 83.4561 239.571 83.4561 239.37C83.4561 239.17 83.5841 239.037 83.7761 239.037H93.9201C94.1121 239.037 94.2401 239.17 94.2401 239.37C94.2401 239.571 94.1121 239.704 93.9201 239.704Z" fill="#472938"/>
<path d="M94.1116 232.43H82.4636C82.2716 232.43 82.1436 232.297 82.1436 232.096C82.1436 231.896 82.2716 231.763 82.4636 231.763H94.1116C94.3035 231.763 94.4316 231.896 94.4316 232.096C94.4316 232.297 94.3035 232.43 94.1116 232.43Z" fill="#472938"/>
<path d="M267.807 176.376L287.199 175.608C288.031 175.575 288.735 176.242 288.767 177.11L290.271 218.817C290.303 219.685 289.663 220.419 288.831 220.452L269.439 221.219C268.607 221.253 267.903 220.585 267.871 219.718L266.367 178.01C266.335 177.11 266.975 176.409 267.807 176.376Z" fill="#3B2645"/>
<path d="M269.375 219.851C269.247 219.851 269.151 219.751 269.151 219.618L267.647 177.91C267.647 177.843 267.679 177.777 267.711 177.743C267.743 177.71 267.807 177.677 267.871 177.677L287.263 176.909C287.391 176.909 287.487 177.009 287.487 177.143L288.991 218.85C288.991 218.984 288.895 219.084 288.767 219.084L269.375 219.851Z" fill="#FEF9EF"/>
<path d="M207.68 171.204C207.68 171.204 228.032 173.339 231.808 190.556C235.584 207.773 242.56 248.679 242.56 248.679C242.56 248.679 257.408 223.888 258.592 219.951C259.776 216.014 263.616 202.701 263.488 198.163C263.36 193.626 267.616 196.862 267.616 202.267L268.256 220.151C268.288 220.752 268.768 221.219 269.344 221.186H269.376L289.024 219.651C289.696 219.618 290.176 219.017 290.144 218.316V218.083C290.144 218.083 288.736 215.047 289.152 213.645C289.568 212.244 292.928 212.11 293.312 212.444C293.696 212.778 295.776 216.948 295.712 218.083C295.648 219.217 293.216 222.754 291.616 223.288C290.016 223.822 274.08 227.826 270.816 232.964C267.552 238.102 253.28 283.113 241.696 286.583C230.112 290.053 218.816 257.321 216.16 247.745C213.504 238.169 207.68 171.204 207.68 171.204Z" fill="#FFEDE5"/>
<path d="M212.8 224.289C214.048 235.333 215.296 244.609 216.16 247.712C217.408 252.183 220.544 261.759 224.736 270.301L226.016 207.406L212.8 224.289Z" fill="#E0855C"/>
<path d="M289.599 200.566C289.599 200.566 296.543 204.269 296.415 205.838C296.287 207.406 294.975 210.209 293.631 210.075C292.287 209.942 289.759 208.54 289.055 206.905C288.351 205.27 287.999 200.032 289.599 200.566Z" fill="#FFEDE5"/>
<path d="M289.952 206.004C289.952 206.004 296.896 209.708 296.768 211.276C296.64 212.844 295.328 215.647 293.984 215.514C292.64 215.38 290.112 213.979 289.408 212.344C288.704 210.709 288.352 205.47 289.952 206.004Z" fill="#FFEDE5"/>
<path d="M289.952 193.959C289.952 193.959 296.896 197.663 296.768 199.231C296.64 200.799 295.328 203.602 293.984 203.468C292.64 203.335 290.112 201.934 289.408 200.299C288.704 198.664 288.352 193.392 289.952 193.959Z" fill="#FFEDE5"/>
<path d="M236.287 261.926C236.223 261.926 236.191 261.926 236.127 261.892C235.967 261.826 235.903 261.592 235.999 261.459L242.271 248.546C242.335 248.379 242.559 248.313 242.687 248.413C242.847 248.479 242.911 248.713 242.815 248.847L236.543 261.759C236.511 261.859 236.415 261.926 236.287 261.926Z" fill="#472938"/>
<path d="M146.4 280.244C146.432 291.088 141.344 302.699 141.344 302.699C141.344 302.699 176.576 323.319 221.312 305.568C221.312 305.568 215.84 290.887 216.544 275.539C180.384 268.532 146.4 280.244 146.4 280.244Z" fill="#FFEDE5"/>
<path d="M113.792 192.625C111.168 196.729 121.28 217.149 130.944 237.802C139.744 217.282 134.592 192.358 131.616 181.647C124.8 184.383 116.448 188.421 113.792 192.625Z" fill="#FFEDE5"/>
<path d="M216.545 275.572C216.609 273.971 216.769 272.369 216.993 270.768C217.121 269.8 217.281 268.766 217.441 267.665C188.737 259.49 154.561 268.833 144.929 271.802C145.857 275.105 146.401 277.975 146.401 280.244C146.401 280.244 180.385 268.532 216.545 275.572Z" fill="#FEF9EF"/>
<path d="M130.945 238.903C130.817 238.903 130.721 238.837 130.657 238.703L123.521 222.687C123.457 222.521 123.521 222.32 123.681 222.254C123.841 222.187 124.033 222.254 124.097 222.42L131.233 238.436C131.297 238.603 131.233 238.803 131.073 238.87C131.041 238.903 130.977 238.903 130.945 238.903Z" fill="#472938"/>
<path d="M185.665 309.606C186.159 309.606 186.561 309.188 186.561 308.672C186.561 308.156 186.159 307.737 185.665 307.737C185.17 307.737 184.769 308.156 184.769 308.672C184.769 309.188 185.17 309.606 185.665 309.606Z" fill="#E0855C"/>
<path d="M224.48 209.374C224.48 209.141 224.48 208.907 224.48 208.707C224.48 208.607 224.48 208.474 224.48 208.373C224.48 208.107 224.48 207.873 224.448 207.606C224.448 207.539 224.448 207.473 224.448 207.373C224.448 207.039 224.416 206.739 224.416 206.438V206.238C224.416 206.004 224.384 205.738 224.384 205.504C224.384 205.404 224.384 205.304 224.352 205.204C224.352 205.004 224.32 204.803 224.32 204.636L224.288 204.303C224.288 204.136 224.256 203.936 224.224 203.769C224.224 203.669 224.192 203.569 224.192 203.435C224.16 203.235 224.16 203.068 224.128 202.868C224.128 202.768 224.096 202.701 224.096 202.601C224.064 202.334 224.032 202.067 223.968 201.8C221.472 185.985 207.648 171.17 207.648 171.17C207.648 171.17 213.024 193.426 214.752 196.028C221.056 205.571 224.576 211.31 224.128 218.917C224.16 218.517 224.192 218.15 224.224 217.749C224.224 217.649 224.224 217.549 224.224 217.449C224.256 217.149 224.256 216.848 224.288 216.582C224.288 216.481 224.288 216.348 224.32 216.248C224.32 215.981 224.352 215.714 224.352 215.414L224.384 215.08C224.384 214.78 224.416 214.513 224.416 214.246C224.416 214.146 224.416 214.079 224.416 213.979C224.448 213.245 224.48 212.511 224.48 211.777C224.48 211.677 224.48 211.61 224.48 211.51C224.48 211.243 224.48 210.976 224.48 210.709V210.375C224.48 210.142 224.48 209.908 224.48 209.675V209.374Z" fill="#FFEDE5"/>
<path d="M214.752 196.061C213.024 193.459 207.68 171.204 207.68 171.204H203.616L141.344 178.144C141.344 178.144 136.96 179.478 131.616 181.614C134.56 192.324 139.744 217.282 130.944 237.769C136.736 250.181 142.336 262.66 144.896 271.802C154.528 268.799 188.704 259.49 217.408 267.665C219.296 255.052 222.944 234.966 224.128 218.95C224.576 211.343 221.056 205.604 214.752 196.061Z" fill="#AB8DA8"/>
<path d="M151.776 254.185C150.24 254.185 148.64 253.985 146.944 253.551C146.784 253.518 146.656 253.317 146.72 253.151C146.752 252.984 146.944 252.85 147.104 252.917C153.184 254.519 158.112 252.684 163.296 250.782C168.224 248.947 173.312 247.078 179.84 247.845C193.024 249.38 214.496 245.677 214.72 245.643C214.912 245.61 215.072 245.743 215.104 245.91C215.136 246.077 215.008 246.277 214.848 246.311C214.624 246.344 193.056 250.081 179.808 248.546C173.44 247.812 168.416 249.647 163.552 251.449C159.648 252.817 155.936 254.185 151.776 254.185Z" fill="#472938"/>
<path d="M200.992 82.2499C200.992 82.2499 217.696 83.9849 212.672 107.141C207.648 130.297 212.608 129.263 216.96 141.508C221.312 153.753 198.56 145.645 198.56 145.645C198.56 145.645 210.144 163.73 148.576 155.922C97.7919 149.482 131.68 121.889 131.68 121.889C131.68 121.889 116.416 123.991 134.688 107.174C147.552 95.3294 154.4 51.7868 200.992 82.2499Z" fill="#3B2645"/>
<path d="M189.92 146.312C189.92 146.312 184.768 165.164 191.84 168.668C197.28 171.37 203.616 171.204 203.616 171.204C203.616 171.204 201.44 221.186 174.56 221.72C147.68 222.253 141.344 178.144 141.344 178.144C141.344 178.144 152.288 174.14 155.552 166.299C158.816 158.458 158.976 147.48 158.976 147.48L189.92 146.312Z" fill="#FFEDE5"/>
<path d="M202.833 132.06C205.572 127.113 205.51 121.729 202.694 120.033C199.878 118.338 195.374 120.974 192.635 125.921C189.895 130.868 189.958 136.253 192.774 137.948C195.59 139.643 200.093 137.007 202.833 132.06Z" fill="#E0855C"/>
<path d="M196.128 132.432C196.032 132.432 195.968 132.399 195.904 132.332C195.776 132.199 195.776 131.998 195.904 131.865L200.736 127.127C200.864 126.993 201.056 126.993 201.184 127.127C201.312 127.26 201.312 127.461 201.184 127.594L196.352 132.332C196.288 132.432 196.224 132.432 196.128 132.432Z" fill="#472938"/>
<path d="M152.484 134.188C155.649 133.408 157.191 128.269 155.93 122.71C154.669 117.151 151.081 113.277 147.917 114.058C144.753 114.838 143.21 119.978 144.471 125.536C145.732 131.095 149.32 134.969 152.484 134.188Z" fill="#FFEDE5"/>
<path d="M188.32 162.395C187.36 155.655 189.92 146.279 189.92 146.279L158.944 147.48C158.944 147.48 158.912 149.916 158.528 153.32C158.528 153.353 173.984 172.872 188.32 162.395Z" fill="#E0855C"/>
<path d="M151.648 127.361C151.552 127.361 151.456 127.294 151.392 127.194L148.32 122.289C148.224 122.122 148.256 121.922 148.416 121.822C148.576 121.722 148.768 121.755 148.864 121.922L151.936 126.827C152.032 126.994 152 127.194 151.84 127.294C151.776 127.361 151.712 127.361 151.648 127.361Z" fill="#472938"/>
<path d="M153.695 92.1597C153.695 92.1597 142.687 154.12 168.543 160.56C194.399 167 203.615 109.21 202.943 97.198C202.271 85.1862 157.535 81.5494 153.695 92.1597Z" fill="#FFEDE5"/>
<path d="M188.096 120.487C188.928 120.654 189.472 121.488 189.344 122.356L189.184 123.323C189.024 124.191 188.224 124.758 187.392 124.625C186.56 124.458 186.016 123.624 186.144 122.756L186.304 121.789C186.464 120.921 187.264 120.321 188.096 120.487Z" fill="#472938"/>
<path d="M164 117.685C164.864 117.685 165.536 118.385 165.536 119.286V120.254C165.536 121.121 164.864 121.855 164 121.855C163.168 121.855 162.464 121.155 162.464 120.254V119.286C162.464 118.385 163.136 117.685 164 117.685Z" fill="#472938"/>
<path d="M193.728 118.819C193.728 118.819 192.576 117.017 189.248 116.417C185.92 115.816 184.864 116.016 184.832 114.915C184.8 113.814 192.256 112.113 193.728 118.819Z" fill="#472938"/>
<path d="M159.168 114.248C159.168 114.248 160.832 112.947 164.16 113.514C167.488 114.114 168.416 114.648 168.8 113.614C169.184 112.579 162.688 108.409 159.168 114.248Z" fill="#472938"/>
<path d="M165.504 137.871L179.328 139.506C179.328 139.506 177.184 149.249 171.072 148.114C164.992 147.013 165.504 137.871 165.504 137.871Z" fill="white"/>
<path d="M174.656 135.469C173.696 135.469 172.64 135.202 171.68 134.735C171.52 134.668 171.456 134.468 171.52 134.301C171.584 134.134 171.776 134.067 171.936 134.134C173.344 134.835 174.912 135.002 175.968 134.568C176.416 134.401 176.704 134.134 176.832 133.834C177.248 132.799 177.088 129.596 176.896 125.893L176.832 124.591C176.48 117.751 180.416 116.45 180.576 116.383C180.736 116.317 180.928 116.417 180.96 116.617C181.024 116.784 180.928 116.984 180.736 117.017C180.576 117.051 177.12 118.252 177.44 124.558L177.504 125.859C177.696 129.796 177.888 132.933 177.376 134.101C177.184 134.568 176.768 134.968 176.16 135.202C175.776 135.402 175.232 135.469 174.656 135.469Z" fill="#472938"/>
<path d="M198.56 126.627C198.56 126.627 200.64 109.91 193.728 100.768C193.728 100.768 187.872 112.313 178.272 108.309C178.272 108.309 165.088 120.22 151.648 116.75C138.208 113.28 142.976 80.515 162.464 79.1136C181.952 77.7122 221.6 85.8869 198.56 126.627Z" fill="#3B2645"/>
<defs>
<linearGradient id="paint0_linear_256_4898" x1="360" y1="405.866" x2="-120.776" y2="375.624" gradientUnits="userSpaceOnUse">
<stop stop-color="#92A3FD"/>
<stop offset="1" stop-color="#9DCEFF"/>
</linearGradient>
</defs>
</svg>
