<svg width="360" height="241" viewBox="0 0 360 241" fill="none" xmlns="http://www.w3.org/2000/svg">
<path opacity="0.3" d="M-10.389 141.286C-10.389 141.286 4.82472 86.1642 57.5 86.1642C95.7778 86.1642 123.222 115.255 159.333 115.255C207.875 115.255 227.07 60.1337 275.611 60.1337C311.723 60.1337 277.056 110.152 325.444 110.152C370.222 110.152 352.167 67.7903 394.429 58.6044" stroke="#00B2FF" stroke-width="0.8" stroke-linecap="round"/>
<path opacity="0.7" d="M-13.2773 113.725C-3.88846 138.223 23.9964 169.745 63.2782 154.556C101.556 139.755 116.415 45.3333 173.056 45.3333C217.112 45.3333 210.936 136.692 248.167 136.692C290.056 136.692 282.834 70.8524 327.612 70.8524C356.5 70.8524 365.889 115.256 393.334 113.725" stroke="#00B2FF" stroke-width="2.2" stroke-linecap="round"/>
<path opacity="0.3" d="M-38.1116 221.927C-38.1116 221.927 -22.8979 166.805 29.7774 166.805C68.0552 166.805 95.4996 195.896 131.611 195.896C180.152 195.896 199.347 140.775 247.889 140.775C284 140.775 249.333 190.793 297.722 190.793C342.5 190.793 324.444 148.431 366.706 139.245" stroke="#00B2FF" stroke-width="0.8" stroke-linecap="round"/>
<path opacity="0.7" d="M-41 194.366C-31.6111 218.865 -3.7263 250.386 35.5556 235.197C73.8333 220.396 88.6921 125.974 145.333 125.974C189.389 125.974 183.213 217.333 220.444 217.333C262.333 217.333 255.111 151.494 299.889 151.494C328.778 151.494 338.167 195.897 365.611 194.366" stroke="#00B2FF" stroke-width="2.2" stroke-linecap="round"/>
<path opacity="0.3" d="M-37.1116 97.3928C-37.1116 97.3928 -21.8979 42.2712 30.7774 42.2712C69.0552 42.2712 96.4996 71.3623 132.611 71.3623C181.152 71.3623 200.347 16.2407 248.889 16.2407C285 16.2407 250.333 66.2593 298.722 66.2593C343.5 66.2593 325.444 23.8973 367.706 14.7113" stroke="#00B2FF" stroke-width="0.8" stroke-linecap="round"/>
<path opacity="0.7" d="M-40 69.8322C-30.6111 94.3304 -2.7263 125.852 36.5556 110.663C74.8333 95.8616 89.6921 1.44019 146.333 1.44019C190.389 1.44019 184.213 92.7993 221.444 92.7993C263.333 92.7993 256.111 26.9594 300.889 26.9594C329.778 26.9594 339.167 71.3629 366.611 69.8317" stroke="#00B2FF" stroke-width="2.2" stroke-linecap="round"/>
</svg>
