<svg width="360" height="256" viewBox="0 0 360 256" fill="none" xmlns="http://www.w3.org/2000/svg">
<path opacity="0.3" d="M-10.389 181.175C-10.389 181.175 4.82472 107.709 57.5 107.709C95.7778 107.709 123.222 146.482 159.333 146.482C207.875 146.482 227.07 73.0165 275.611 73.0165C311.723 73.0165 277.056 139.68 325.444 139.68C370.222 139.68 352.167 83.2211 394.429 70.9782" stroke="#F9908E" stroke-width="0.8" stroke-linecap="round"/>
<path opacity="0.7" d="M-13.2773 144.442C-3.88846 177.093 23.9964 219.105 63.2782 198.861C101.556 179.134 116.415 53.2908 173.056 53.2908C217.112 53.2908 210.936 175.053 248.167 175.052C290.056 175.052 282.834 87.3022 327.612 87.3022C356.5 87.3022 365.889 146.482 393.334 144.442" stroke="#F9908E" stroke-width="2.2" stroke-linecap="round"/>
<path opacity="0.3" d="M-38.1116 221.927C-38.1116 221.927 -22.8979 166.805 29.7774 166.805C68.0552 166.805 95.4996 195.896 131.611 195.896C180.152 195.896 199.347 140.775 247.889 140.775C284 140.775 249.333 190.793 297.722 190.793C342.5 190.793 324.444 148.431 366.706 139.245" stroke="#F6605D" stroke-width="0.8" stroke-linecap="round"/>
<path opacity="0.7" d="M-41 194.366C-31.6111 218.865 -3.7263 250.386 35.5556 235.197C73.8333 220.396 88.6921 125.974 145.333 125.974C189.389 125.974 183.213 217.333 220.444 217.333C262.333 217.333 255.111 151.494 299.889 151.494C328.778 151.494 338.167 195.897 365.611 194.366" stroke="#F6605D" stroke-width="2.2" stroke-linecap="round"/>
<path opacity="0.3" d="M-37.1116 97.3928C-37.1116 97.3928 -21.8979 42.2712 30.7774 42.2712C69.0552 42.2712 96.4996 71.3623 132.611 71.3623C181.152 71.3623 200.347 16.2407 248.889 16.2407C285 16.2407 250.333 66.2593 298.722 66.2593C343.5 66.2593 325.444 23.8973 367.706 14.7113" stroke="#F9908E" stroke-width="0.8" stroke-linecap="round"/>
<path opacity="0.7" d="M-40 69.8322C-30.6111 94.3304 -2.7263 125.852 36.5556 110.663C74.8333 95.8616 89.6921 1.44019 146.333 1.44019C190.389 1.44019 184.213 92.7993 221.444 92.7993C263.333 92.7993 256.111 26.9594 300.889 26.9594C329.778 26.9594 339.167 71.3629 366.611 69.8317" stroke="#F9908E" stroke-width="2.2" stroke-linecap="round"/>
</svg>
