<svg width="360" height="422" viewBox="0 0 360 422" fill="none" xmlns="http://www.w3.org/2000/svg">
<g clip-path="url(#clip0_256_5682)">
<path d="M0 118.599C0 118.599 13.28 76.4389 41.024 87.378C79.712 102.606 178.88 346.158 282.944 346.158C336.288 346.158 360 303.599 360 303.599V-27H0V118.599Z" fill="url(#paint0_linear_256_5682)"/>
<path d="M160.896 146.828C160.896 146.828 163.264 130.037 181.408 130.037C199.552 130.037 208.352 151.516 212.448 164.118C216.544 176.719 227.104 188.589 240.864 195.605C254.624 202.621 265.024 210.168 263.264 226.061C263.264 226.061 292.704 250.001 236.608 254.423C180.512 258.845 152.96 222.171 156.352 203.286C159.744 184.4 137.856 158.798 160.896 146.828Z" fill="#3B2645"/>
<path d="M194.848 187.126C194.848 187.126 192.288 212.928 203.168 215.189C203.168 215.189 207.68 261.505 182.304 261.505C156.928 261.505 159.52 216.585 159.52 216.585C159.52 216.585 170.336 213.626 169.472 188.722C168.608 163.819 195.2 169.803 194.848 187.126Z" fill="#FFEDE5"/>
<path d="M187.295 189.421C189.439 180.942 178.399 179.213 170.975 178.98C169.919 181.474 169.311 184.699 169.439 188.723C169.599 192.247 169.439 195.805 169.023 199.329C173.247 199.662 184.703 199.628 187.295 189.421Z" fill="#E0855C"/>
<path d="M166.384 181.509C168.673 180.691 169.337 176.424 167.866 171.978C166.395 167.532 163.347 164.591 161.057 165.409C158.767 166.227 158.104 170.494 159.574 174.94C161.045 179.385 164.094 182.326 166.384 181.509Z" fill="#E0855C"/>
<path d="M204.495 174.899C205.966 170.454 205.302 166.187 203.012 165.369C200.723 164.551 197.674 167.492 196.203 171.938C194.732 176.383 195.396 180.65 197.686 181.468C199.976 182.286 203.024 179.345 204.495 174.899Z" fill="#E0855C"/>
<path d="M162.272 150.984C162.272 150.984 160.512 195.505 180.8 195.605C196.576 195.671 201.088 175.688 201.344 153.178C201.6 130.669 162.528 133.694 162.272 150.984Z" fill="#FFEDE5"/>
<path d="M182.399 182.571C179.007 182.571 176.031 180.443 175.999 180.41C175.839 180.31 175.807 180.111 175.935 179.944C176.031 179.778 176.223 179.745 176.383 179.878C176.447 179.911 182.207 184.001 186.463 180.51C186.591 180.41 186.815 180.41 186.911 180.576C187.007 180.742 187.007 180.942 186.847 181.042C185.407 182.172 183.871 182.571 182.399 182.571Z" fill="#472938"/>
<path d="M169.216 164.151C169.216 164.151 171.872 165.913 176.352 164.483C176.352 164.45 172.544 168.507 169.216 164.151Z" fill="#472938"/>
<path d="M194.688 164.517C194.688 164.517 192.032 166.279 187.552 164.849C187.552 164.849 191.36 168.906 194.688 164.517Z" fill="#472938"/>
<path d="M167.68 158.731C167.68 158.731 171.04 154.874 175.936 156.071C178.432 156.67 177.472 153.478 172.96 153.677C168.448 153.877 167.68 158.731 167.68 158.731Z" fill="#472938"/>
<path d="M196.48 158.731C196.48 158.731 193.12 154.874 188.223 156.071C185.727 156.67 186.687 153.478 191.199 153.677C195.712 153.877 196.48 158.731 196.48 158.731Z" fill="#472938"/>
<path d="M181.632 175.123C180.672 175.123 178.624 174.392 177.92 173.661C177.664 173.395 177.568 173.129 177.6 172.863C177.664 172.464 177.952 171.2 178.368 169.604C178.912 167.31 179.616 164.484 179.84 163.087C180.064 161.757 179.84 160.361 179.232 159.164C179.136 158.997 179.2 158.798 179.36 158.698C179.52 158.598 179.712 158.665 179.808 158.831C180.48 160.161 180.736 161.691 180.48 163.187C180.256 164.617 179.552 167.476 179.008 169.77C178.624 171.3 178.304 172.63 178.272 172.962C178.272 172.996 178.304 173.062 178.4 173.195C179.072 173.893 181.184 174.558 181.792 174.458C182.592 174.326 184.256 173.528 184.832 172.829C184.96 172.696 185.152 172.696 185.28 172.796C185.408 172.929 185.408 173.129 185.312 173.262C184.608 174.059 182.816 174.957 181.888 175.09C181.76 175.123 181.696 175.123 181.632 175.123Z" fill="#472938"/>
<path d="M162.56 162.389C162.56 162.389 163.84 151.782 167.008 147.892C167.008 147.892 172.32 145.431 180.768 150.652C189.216 155.872 195.136 160.261 202.976 158.964C202.976 158.964 203.712 133.661 183.456 135.024C163.2 136.388 159.04 147.393 162.56 162.389Z" fill="#3B2645"/>
<path d="M296.416 318.727C296.096 318.195 295.136 319.093 295.136 319.093C295.136 319.093 294.144 317.929 291.456 318.76C288.768 319.592 280.8 326.707 280.8 326.707C277.216 326.641 271.36 330.298 271.36 330.298C271.36 330.298 266.944 328.403 262.944 322.152C258.944 315.901 254.592 312.842 254.592 312.842C254.592 312.842 245.216 273.674 238.88 249.236C232.448 252.062 224.096 263.201 218.144 272.178C218.272 276.401 218.4 279.094 218.4 279.094C218.4 279.094 239.264 336.615 241.952 338.344C244.64 340.073 275.328 343.93 275.648 343.697C275.968 343.465 278.784 344.229 279.936 343.697C281.088 343.165 282.496 344.03 283.904 343.032C285.312 342.035 287.744 343.564 288.736 342.6C289.728 341.636 291.456 342.035 292.608 341.47C293.76 340.904 300.192 331.462 300.32 329.766C300.448 328.07 296.736 319.259 296.416 318.727Z" fill="#FFEDE5"/>
<path d="M223.52 260.707C223.52 260.707 234.432 280.058 225.792 299.11L218.368 279.027L223.52 260.707Z" fill="#E0855C"/>
<path d="M238.848 249.17C236.576 240.392 234.688 233.509 233.76 231.015C230.24 221.44 223.744 221.007 223.744 221.007C217.344 221.107 217.664 256.75 218.112 272.112C224.064 263.134 232.416 252.029 238.848 249.17Z" fill="#AB8DA8"/>
<path d="M247.487 314.87C247.359 314.87 247.231 314.771 247.167 314.638C247.135 314.472 247.231 314.272 247.391 314.239L253.663 312.51C253.823 312.477 254.015 312.576 254.047 312.743C254.079 312.909 253.983 313.108 253.823 313.142L247.551 314.87C247.551 314.87 247.519 314.87 247.487 314.87Z" fill="#472938"/>
<path d="M278.528 337.513C278.368 337.513 278.208 337.38 278.208 337.181C278.048 333.124 273.44 332.958 273.248 332.958C273.056 332.958 272.928 332.792 272.928 332.625C272.928 332.426 273.088 332.293 273.248 332.293C273.312 332.293 278.624 332.492 278.816 337.147C278.88 337.347 278.72 337.513 278.528 337.513C278.56 337.513 278.56 337.513 278.528 337.513Z" fill="#472938"/>
<path d="M277.119 340.539C277.087 340.539 277.023 340.539 276.991 340.506C276.831 340.439 276.767 340.24 276.831 340.073C277.215 339.209 280.671 331.428 282.111 330.431C283.295 329.6 284.735 329.866 285.311 330.398C285.695 330.73 285.567 331.063 285.535 331.162C285.375 331.528 283.519 336.316 282.591 338.777C282.527 338.943 282.335 339.043 282.175 338.976C282.015 338.91 281.919 338.71 281.983 338.544C282.079 338.245 284.575 331.794 284.927 330.963C284.863 330.896 284.703 330.763 284.383 330.697C284.127 330.63 283.295 330.464 282.463 331.029C281.375 331.794 278.431 338.045 277.375 340.406C277.343 340.472 277.247 340.539 277.119 340.539Z" fill="#472938"/>
<path d="M287.232 338.045C287.04 338.045 286.912 337.912 286.912 337.713C286.912 337.646 286.912 337.646 287.808 334.354C288.544 331.661 289.728 327.272 289.856 326.574C289.664 326.375 288.768 325.975 288.16 326.175C287.68 326.341 286.208 328.602 285.12 330.597C285.024 330.763 284.832 330.797 284.672 330.73C284.512 330.63 284.48 330.431 284.544 330.265C285.12 329.234 287.04 325.842 287.936 325.51C288.704 325.244 289.696 325.61 290.144 325.942C290.368 326.109 290.496 326.308 290.496 326.474C290.496 326.674 290.048 328.369 288.416 334.487C288 336.05 287.584 337.546 287.552 337.713C287.552 337.912 287.392 338.045 287.232 338.045Z" fill="#472938"/>
<path d="M291.744 337.347C291.712 337.347 291.712 337.347 291.68 337.347C291.52 337.314 291.392 337.114 291.424 336.948C292.544 331.761 294.176 323.848 294.208 322.983C294.08 322.784 293.504 322.451 292.512 322.451C291.968 322.451 290.592 324.346 289.664 326.109C289.568 326.275 289.376 326.341 289.216 326.242C289.056 326.142 288.992 325.942 289.088 325.776C289.6 324.845 291.328 321.786 292.512 321.786C293.632 321.786 294.56 322.185 294.816 322.75C294.88 322.883 295.04 323.249 292.032 337.081C292.032 337.247 291.904 337.347 291.744 337.347Z" fill="#472938"/>
<path d="M294.144 322.784C294.016 322.784 293.888 322.684 293.824 322.551C293.312 320.855 294.816 318.96 294.88 318.893C295.008 318.76 295.2 318.727 295.328 318.86C295.456 318.993 295.488 319.193 295.36 319.326C295.36 319.359 294.016 321.021 294.432 322.385C294.496 322.551 294.4 322.75 294.208 322.817C294.208 322.783 294.176 322.784 294.144 322.784Z" fill="#472938"/>
<path d="M292.448 334.122C292.384 334.122 292.32 334.088 292.288 334.055C292.128 333.955 292.096 333.756 292.192 333.59L294.816 329.467L294.048 324.479C294.016 324.313 294.144 324.114 294.304 324.114C294.464 324.08 294.656 324.213 294.656 324.38L295.488 329.633L292.736 333.989C292.64 334.055 292.544 334.122 292.448 334.122Z" fill="#472938"/>
<path d="M70.5277 324.28C70.8157 323.748 71.8077 324.58 71.8077 324.58C71.8077 324.58 72.7677 323.383 75.4877 324.114C78.2077 324.846 86.4317 331.595 86.4317 331.595C89.9837 331.396 96.0317 334.787 96.0317 334.787C96.0317 334.787 100.384 332.692 104.16 326.275C107.936 319.858 112.16 316.6 112.16 316.6C112.16 316.6 120 277.099 125.408 252.362C131.936 254.922 140.704 265.695 147.008 274.406C147.04 278.629 147.04 281.322 147.04 281.322C147.04 281.322 128.416 339.642 125.792 341.503C123.168 343.365 92.6397 348.453 92.3517 348.253C92.0637 348.054 89.2477 348.918 88.0637 348.419C86.8797 347.921 85.5357 348.885 84.0637 347.921C82.5917 346.956 80.2557 348.586 79.1997 347.688C78.1437 346.79 76.4797 347.222 75.2637 346.724C74.0477 346.225 67.2957 337.048 67.1037 335.352C66.9117 333.657 70.2397 324.812 70.5277 324.28Z" fill="#FFEDE5"/>
<path d="M141.152 263.301C141.152 263.301 131.008 283.117 140.352 301.77L146.976 281.388L141.152 263.301Z" fill="#E0855C"/>
<path d="M125.376 252.395C127.296 243.551 128.928 236.602 129.76 234.041C132.896 224.333 139.392 223.601 139.392 223.601C145.792 223.435 146.816 259.078 146.976 274.439C140.672 265.761 131.904 254.989 125.376 252.395Z" fill="#AB8DA8"/>
<path d="M119.263 318.395C119.231 318.395 119.231 318.395 119.199 318.395L112.863 316.932C112.703 316.899 112.575 316.7 112.607 316.533C112.639 316.367 112.831 316.234 112.991 316.267L119.327 317.73C119.487 317.764 119.615 317.963 119.583 318.129C119.551 318.296 119.391 318.395 119.263 318.395Z" fill="#472938"/>
<path d="M89.0876 342.301C88.8956 342.301 88.7676 342.135 88.7676 341.969C88.7996 337.281 94.0796 336.882 94.1436 336.882C94.3036 336.882 94.4636 337.015 94.4956 337.181C94.4956 337.381 94.3676 337.514 94.2076 337.547C94.0156 337.547 89.4396 337.913 89.4396 341.969C89.4076 342.168 89.2796 342.301 89.0876 342.301Z" fill="#472938"/>
<path d="M90.6554 345.261C90.5274 345.261 90.4314 345.194 90.3674 345.094C89.2474 342.8 86.0474 336.649 84.9274 335.918C84.0634 335.386 83.2314 335.585 82.9754 335.652C82.6874 335.751 82.5274 335.884 82.4634 335.951C82.8474 336.782 85.5674 343.133 85.6954 343.432C85.7594 343.598 85.6954 343.798 85.5354 343.864C85.3754 343.931 85.1834 343.864 85.1194 343.698C84.0634 341.271 82.0474 336.549 81.8874 336.184C81.7594 335.951 81.8554 335.652 82.0794 335.419C82.6234 334.887 84.0634 334.554 85.2794 335.319C86.7834 336.25 90.5274 343.897 90.9434 344.762C91.0074 344.928 90.9754 345.128 90.8154 345.194C90.7514 345.261 90.6874 345.261 90.6554 345.261Z" fill="#472938"/>
<path d="M80.4154 343.166C80.2554 343.166 80.1274 343.066 80.0954 342.9C80.0634 342.734 79.6473 341.404 79.1673 339.841C77.2473 333.69 76.7354 331.961 76.7354 331.762C76.7354 331.562 76.8314 331.396 77.0554 331.23C77.5034 330.864 78.4633 330.465 79.2633 330.698C80.1913 330.964 82.2393 334.289 82.8473 335.286C82.9433 335.452 82.8794 335.652 82.7513 335.752C82.5914 335.851 82.3994 335.785 82.3034 335.652C81.1194 333.69 79.5513 331.496 79.1033 331.363C78.4633 331.163 77.5993 331.629 77.4073 331.828C77.5673 332.427 78.9433 336.949 79.8073 339.675C80.7673 342.767 80.7673 342.767 80.7673 342.834C80.7673 343 80.6074 343.166 80.4154 343.166C80.4474 343.166 80.4474 343.166 80.4154 343.166Z" fill="#472938"/>
<path d="M75.9037 342.7C75.7757 342.7 75.6477 342.601 75.5837 342.468C72.0637 328.736 72.2237 328.37 72.2557 328.237C72.4797 327.638 73.3757 327.206 74.5277 327.173H74.5597C75.7437 327.173 77.5677 330.132 78.1117 331.03C78.2077 331.196 78.1437 331.396 78.0157 331.495C77.8557 331.595 77.6637 331.529 77.5677 331.396C76.5757 329.7 75.1357 327.838 74.5917 327.838C73.6317 327.871 73.0557 328.237 72.9277 328.436C72.9917 329.301 74.9437 337.148 76.2557 342.268C76.2877 342.434 76.1917 342.634 76.0317 342.667C75.9357 342.667 75.9037 342.7 75.9037 342.7Z" fill="#472938"/>
<path d="M72.9594 328.27C72.9274 328.27 72.8954 328.27 72.8634 328.27C72.7034 328.237 72.5754 328.038 72.6394 327.871C72.9914 326.475 71.6154 324.879 71.5834 324.846C71.4554 324.713 71.4874 324.513 71.6154 324.38C71.7434 324.247 71.9354 324.28 72.0634 324.413C72.1274 324.48 73.6954 326.309 73.2474 328.038C73.2154 328.171 73.0874 328.27 72.9594 328.27Z" fill="#472938"/>
<path d="M75.0713 339.475C74.9753 339.475 74.8793 339.442 74.8153 339.342L71.9033 335.12L72.5113 329.833C72.5433 329.667 72.7033 329.534 72.8633 329.534C73.0233 329.567 73.1513 329.733 73.1513 329.899L72.5753 334.92L75.3593 338.943C75.4553 339.076 75.4233 339.309 75.2953 339.409C75.1993 339.475 75.1353 339.475 75.0713 339.475Z" fill="#472938"/>
<path d="M203.135 215.189L223.743 221.008C223.743 221.008 221.247 255.62 225.503 262.769C229.759 269.917 227.391 286.176 222.239 294.256C222.239 294.256 213.983 321.853 216.223 328.337C218.463 334.82 225.983 349.151 225.983 349.151C225.983 349.151 192.415 366.84 143.839 351.113C143.839 351.113 153.471 330.032 151.967 321.953C150.463 313.873 140.063 291.363 140.191 280.724C140.319 270.084 143.583 241.689 138.815 223.734L159.423 216.585C159.423 216.585 159.775 258.746 183.231 258.746C206.687 258.746 203.135 215.189 203.135 215.189Z" fill="#AB8DA8"/>
<path d="M222.271 294.256C222.271 294.256 219.711 299.576 203.455 301.803C203.455 301.803 219.103 303.034 217.535 312.809L222.271 294.256Z" fill="#543753"/>
<path d="M142.432 292.76C142.432 292.76 146.272 300.241 163.648 301.937C163.648 301.937 144.608 298.944 148.16 309.783L142.432 292.76Z" fill="#543753"/>
<path d="M140.287 282.586C140.127 282.586 139.967 282.453 139.967 282.286C139.935 281.721 139.903 281.222 139.935 280.724C139.967 278.33 140.159 275.071 140.351 271.281C140.639 266.094 140.991 259.643 141.087 253.027C141.087 252.827 141.215 252.694 141.407 252.694C141.599 252.694 141.727 252.861 141.727 253.027C141.631 259.643 141.279 266.127 140.991 271.314C140.767 275.104 140.607 278.363 140.575 280.757C140.575 281.222 140.575 281.721 140.607 282.253C140.607 282.386 140.479 282.552 140.287 282.586Z" fill="#472938"/>
<path d="M225.503 263.101C225.407 263.101 225.279 263.035 225.215 262.935C223.807 260.574 222.975 255.155 222.751 246.842C222.751 246.643 222.879 246.51 223.071 246.51C223.231 246.51 223.391 246.643 223.391 246.842C223.615 255.055 224.415 260.375 225.759 262.602C225.855 262.769 225.791 262.968 225.663 263.068C225.631 263.068 225.567 263.101 225.503 263.101Z" fill="#472938"/>
<path d="M144.959 348.652C144.959 348.652 163.039 355.801 184.191 355.036C205.343 354.271 247.679 338.378 267.455 341.637C287.231 344.895 285.951 353.64 285.279 357.663C284.607 361.686 243.551 422.034 207.487 422.034H152.223C152.223 422.034 84.3185 377.579 82.1105 364.745C79.9025 351.911 81.5025 344.23 100.447 343.864C119.391 343.499 139.871 346.923 144.959 348.652Z" fill="#3B2645"/>
<path d="M183.487 368.236C183.487 368.236 210.495 356.566 233.055 352.542C233.055 352.542 247.583 375.95 243.327 395.733C243.295 395.733 191.647 383.963 183.487 368.236Z" fill="#FFEDE5"/>
<path d="M183.487 368.236C183.487 368.236 248.831 377.113 243.295 395.733C237.759 414.353 183.487 368.236 183.487 368.236Z" fill="#E0855C"/>
<path d="M212.863 401.918C212.863 401.918 145.887 407.903 131.199 411.028C116.511 414.153 101.631 412.757 92.543 416.049C83.455 419.34 78.431 421.867 77.343 422C76.255 422.133 73.759 407.47 78.335 402.283C78.335 402.283 76.927 396.997 83.327 392.907C89.727 388.817 100.351 394.204 104.287 392.907C108.223 391.61 111.039 390.413 115.231 391.344C119.423 392.275 129.663 394.902 129.663 394.902C129.663 394.902 182.399 360.09 212.863 401.918Z" fill="#FFEDE5"/>
<path d="M129.695 394.902L169.471 406.141L212.863 401.918C212.863 401.918 193.087 380.771 165.791 382.733C138.495 384.695 129.695 394.902 129.695 394.902Z" fill="#E0855C"/>
<path d="M143.551 353.107C143.551 353.107 164.095 357.43 193.791 373.589C223.487 389.748 248.063 383.132 256.735 386.257C265.407 389.383 281.855 386.955 284.543 389.383C287.231 391.81 288.991 396.066 287.391 397.894C287.391 397.894 294.559 414.985 293.887 416.115C293.215 417.246 290.719 417.146 289.535 416.88C288.351 416.614 277.919 411.227 265.919 409C253.919 406.772 220.831 401.984 194.463 400.588C168.095 399.191 129.695 396.431 129.695 396.431C129.695 396.431 130.591 362.816 143.551 353.107Z" fill="#FFEDE5"/>
<path d="M285.215 398.593C284.191 398.593 282.815 398.393 281.055 397.761C280.895 397.695 280.799 397.495 280.863 397.329C280.927 397.163 281.119 397.063 281.279 397.13C285.247 398.593 287.167 397.595 287.199 397.595C287.359 397.495 287.551 397.562 287.615 397.728C287.711 397.895 287.647 398.094 287.487 398.16C287.455 398.16 286.719 398.593 285.215 398.593Z" fill="#472938"/>
<path d="M81.5674 403.314C79.3274 403.314 78.2394 402.583 78.1754 402.55C78.0154 402.45 77.9834 402.25 78.0794 402.084C78.1754 401.918 78.3674 401.885 78.5274 401.984C78.5274 401.984 79.6794 402.716 81.9194 402.616C84.2554 402.55 86.7834 401.353 86.8154 401.353C86.9754 401.286 87.1674 401.353 87.2314 401.519C87.2954 401.685 87.2314 401.885 87.0714 401.951C86.9754 402.018 84.3834 403.181 81.9514 403.281C81.8234 403.314 81.6954 403.314 81.5674 403.314Z" fill="#472938"/>
</g>
<defs>
<linearGradient id="paint0_linear_256_5682" x1="360" y1="346.158" x2="-120.004" y2="310.325" gradientUnits="userSpaceOnUse">
<stop stop-color="#92A3FD"/>
<stop offset="1" stop-color="#9DCEFF"/>
</linearGradient>
<clipPath id="clip0_256_5682">
<rect width="360" height="422" fill="white"/>
</clipPath>
</defs>
</svg>
